<mxfile host="app.diagrams.net" modified="2024-05-21T05:50:38.880Z" agent="Mozilla/5.0 (Windows NT 10.0; Win64; x64) AppleWebKit/537.36 (KHTML, like Gecko) Chrome/125.0.0.0 Safari/537.36" etag="Vh0R4lnyg5V525LlcggR" version="24.4.4" type="github">
  <diagram name="PÃ¡gina-1" id="-b-AfgoWS8F_7KR_pjyo">
    <mxGraphModel dx="1728" dy="622" grid="1" gridSize="10" guides="1" tooltips="1" connect="1" arrows="1" fold="1" page="1" pageScale="1" pageWidth="827" pageHeight="1169" math="0" shadow="0">
      <root>
        <mxCell id="0" />
        <mxCell id="1" parent="0" />
        <mxCell id="mC2HP_9GWKOriePfmFjW-25" value="FFCD00" style="group;fillColor=none;fontColor=#FFCD00;" vertex="1" connectable="0" parent="1">
          <mxGeometry x="30" y="280" width="1110" height="624.38" as="geometry" />
        </mxCell>
        <mxCell id="mC2HP_9GWKOriePfmFjW-81" value="" style="rounded=0;whiteSpace=wrap;html=1;" vertex="1" parent="mC2HP_9GWKOriePfmFjW-25">
          <mxGeometry x="930" y="180" width="120" height="60" as="geometry" />
        </mxCell>
        <mxCell id="mC2HP_9GWKOriePfmFjW-22" value="" style="rounded=0;whiteSpace=wrap;html=1;rotation=0;fillColor=#f1f2f4;" vertex="1" parent="mC2HP_9GWKOriePfmFjW-25">
          <mxGeometry y="-10" width="1110" height="630" as="geometry" />
        </mxCell>
        <mxCell id="mC2HP_9GWKOriePfmFjW-24" value="" style="rounded=0;whiteSpace=wrap;html=1;fillColor=#002244;" vertex="1" parent="mC2HP_9GWKOriePfmFjW-25">
          <mxGeometry width="1110" height="110" as="geometry" />
        </mxCell>
        <mxCell id="mC2HP_9GWKOriePfmFjW-26" value="Presidente FC" style="text;html=1;align=center;verticalAlign=middle;whiteSpace=wrap;rounded=0;fontColor=#ffcd00;fontSize=48;fontStyle=1" vertex="1" parent="mC2HP_9GWKOriePfmFjW-25">
          <mxGeometry x="30" y="40" width="330" height="30" as="geometry" />
        </mxCell>
        <mxCell id="mC2HP_9GWKOriePfmFjW-32" value="&lt;font style=&quot;font-size: 17px;&quot;&gt;Everton&lt;/font&gt;" style="text;html=1;align=center;verticalAlign=middle;whiteSpace=wrap;rounded=0;fontColor=#ffcd00;fontSize=48;fontStyle=1" vertex="1" parent="mC2HP_9GWKOriePfmFjW-25">
          <mxGeometry x="980" y="40" width="100" height="30" as="geometry" />
        </mxCell>
        <mxCell id="mC2HP_9GWKOriePfmFjW-23" value="" style="group;strokeColor=#FFFFFF;" vertex="1" connectable="0" parent="mC2HP_9GWKOriePfmFjW-25">
          <mxGeometry x="370" y="170" width="320" height="360" as="geometry" />
        </mxCell>
        <mxCell id="mC2HP_9GWKOriePfmFjW-1" value="" style="rounded=0;whiteSpace=wrap;html=1;fillColor=#00BF00;" vertex="1" parent="mC2HP_9GWKOriePfmFjW-23">
          <mxGeometry width="320" height="360" as="geometry" />
        </mxCell>
        <mxCell id="mC2HP_9GWKOriePfmFjW-5" value="" style="ellipse;whiteSpace=wrap;html=1;aspect=fixed;fillColor=#00D900;strokeColor=#FFFFFF;" vertex="1" parent="mC2HP_9GWKOriePfmFjW-23">
          <mxGeometry x="114.28571428571428" y="140" width="80" height="80" as="geometry" />
        </mxCell>
        <mxCell id="mC2HP_9GWKOriePfmFjW-3" value="" style="endArrow=none;html=1;rounded=0;entryX=0;entryY=0.5;entryDx=0;entryDy=0;exitX=1;exitY=0.5;exitDx=0;exitDy=0;strokeColor=#FFFFFF;" edge="1" parent="mC2HP_9GWKOriePfmFjW-23" source="mC2HP_9GWKOriePfmFjW-1" target="mC2HP_9GWKOriePfmFjW-1">
          <mxGeometry width="50" height="50" relative="1" as="geometry">
            <mxPoint x="222.85714285714283" y="140" as="sourcePoint" />
            <mxPoint x="91.42857142857142" y="209" as="targetPoint" />
          </mxGeometry>
        </mxCell>
        <mxCell id="mC2HP_9GWKOriePfmFjW-6" value="" style="rounded=0;whiteSpace=wrap;html=1;fillColor=#00D900;strokeColor=#FFFFFF;" vertex="1" parent="mC2HP_9GWKOriePfmFjW-23">
          <mxGeometry x="91.42857142857142" width="137.14285714285714" height="60" as="geometry" />
        </mxCell>
        <mxCell id="mC2HP_9GWKOriePfmFjW-8" value="" style="rounded=0;whiteSpace=wrap;html=1;fillColor=#00D900;strokeColor=#FFFFFF;" vertex="1" parent="mC2HP_9GWKOriePfmFjW-23">
          <mxGeometry x="91.42857142857142" y="300" width="137.14285714285714" height="60" as="geometry" />
        </mxCell>
        <mxCell id="mC2HP_9GWKOriePfmFjW-42" value="&lt;font style=&quot;font-size: 35px;&quot;&gt;+&lt;/font&gt;" style="ellipse;whiteSpace=wrap;html=1;aspect=fixed;fillColor=#FFCD00;" vertex="1" parent="mC2HP_9GWKOriePfmFjW-23">
          <mxGeometry x="171.42857142857142" y="240" width="50" height="50" as="geometry" />
        </mxCell>
        <mxCell id="mC2HP_9GWKOriePfmFjW-52" value="&lt;font style=&quot;font-size: 35px;&quot;&gt;+&lt;/font&gt;" style="ellipse;whiteSpace=wrap;html=1;aspect=fixed;fillColor=#FFCD00;" vertex="1" parent="mC2HP_9GWKOriePfmFjW-23">
          <mxGeometry x="131.42857142857142" y="300" width="50" height="50" as="geometry" />
        </mxCell>
        <mxCell id="mC2HP_9GWKOriePfmFjW-53" value="&lt;font style=&quot;font-size: 35px;&quot;&gt;+&lt;/font&gt;" style="ellipse;whiteSpace=wrap;html=1;aspect=fixed;fillColor=#FFCD00;" vertex="1" parent="mC2HP_9GWKOriePfmFjW-23">
          <mxGeometry x="251.42857142857142" y="220" width="50" height="50" as="geometry" />
        </mxCell>
        <mxCell id="mC2HP_9GWKOriePfmFjW-54" value="&lt;font style=&quot;font-size: 35px;&quot;&gt;+&lt;/font&gt;" style="ellipse;whiteSpace=wrap;html=1;aspect=fixed;fillColor=#FFCD00;" vertex="1" parent="mC2HP_9GWKOriePfmFjW-23">
          <mxGeometry x="102.85714285714285" y="240" width="50" height="50" as="geometry" />
        </mxCell>
        <mxCell id="mC2HP_9GWKOriePfmFjW-55" value="&lt;font style=&quot;font-size: 35px;&quot;&gt;+&lt;/font&gt;" style="ellipse;whiteSpace=wrap;html=1;aspect=fixed;fillColor=#FFCD00;" vertex="1" parent="mC2HP_9GWKOriePfmFjW-23">
          <mxGeometry x="22.857142857142854" y="220" width="50" height="50" as="geometry" />
        </mxCell>
        <mxCell id="mC2HP_9GWKOriePfmFjW-56" value="&lt;font style=&quot;font-size: 35px;&quot;&gt;+&lt;/font&gt;" style="ellipse;whiteSpace=wrap;html=1;aspect=fixed;fillColor=#FFCD00;" vertex="1" parent="mC2HP_9GWKOriePfmFjW-23">
          <mxGeometry x="131.42857142857142" y="170" width="50" height="50" as="geometry" />
        </mxCell>
        <mxCell id="mC2HP_9GWKOriePfmFjW-57" value="&lt;font style=&quot;font-size: 35px;&quot;&gt;+&lt;/font&gt;" style="ellipse;whiteSpace=wrap;html=1;aspect=fixed;fillColor=#FFCD00;" vertex="1" parent="mC2HP_9GWKOriePfmFjW-23">
          <mxGeometry x="205.7142857142857" y="120" width="50" height="50" as="geometry" />
        </mxCell>
        <mxCell id="mC2HP_9GWKOriePfmFjW-58" value="&lt;font style=&quot;font-size: 35px;&quot;&gt;+&lt;/font&gt;" style="ellipse;whiteSpace=wrap;html=1;aspect=fixed;fillColor=#FFCD00;" vertex="1" parent="mC2HP_9GWKOriePfmFjW-23">
          <mxGeometry x="57.14285714285714" y="120" width="50" height="50" as="geometry" />
        </mxCell>
        <mxCell id="mC2HP_9GWKOriePfmFjW-59" value="&lt;font style=&quot;font-size: 35px;&quot;&gt;+&lt;/font&gt;" style="ellipse;whiteSpace=wrap;html=1;aspect=fixed;fillColor=#FFCD00;" vertex="1" parent="mC2HP_9GWKOriePfmFjW-23">
          <mxGeometry x="131.42857142857142" y="20" width="50" height="50" as="geometry" />
        </mxCell>
        <mxCell id="mC2HP_9GWKOriePfmFjW-60" value="&lt;span style=&quot;color: rgb(0, 34, 68); font-size: 35px;&quot;&gt;+&lt;/span&gt;" style="ellipse;whiteSpace=wrap;html=1;aspect=fixed;fillColor=#FFCD00;" vertex="1" parent="mC2HP_9GWKOriePfmFjW-23">
          <mxGeometry x="22.857142857142854" y="20" width="50" height="50" as="geometry" />
        </mxCell>
        <mxCell id="mC2HP_9GWKOriePfmFjW-61" value="&lt;font style=&quot;font-size: 35px;&quot;&gt;+&lt;/font&gt;" style="ellipse;whiteSpace=wrap;html=1;aspect=fixed;fillColor=#FFCD00;" vertex="1" parent="mC2HP_9GWKOriePfmFjW-23">
          <mxGeometry x="240" y="20" width="50" height="50" as="geometry" />
        </mxCell>
        <mxCell id="mC2HP_9GWKOriePfmFjW-64" value="" style="endArrow=none;html=1;rounded=0;" edge="1" parent="mC2HP_9GWKOriePfmFjW-25">
          <mxGeometry width="50" height="50" relative="1" as="geometry">
            <mxPoint x="730" y="170" as="sourcePoint" />
            <mxPoint x="730" y="530" as="targetPoint" />
          </mxGeometry>
        </mxCell>
        <mxCell id="mC2HP_9GWKOriePfmFjW-66" value="" style="endArrow=none;html=1;rounded=0;entryX=0.999;entryY=0.561;entryDx=0;entryDy=0;entryPerimeter=0;" edge="1" parent="mC2HP_9GWKOriePfmFjW-25">
          <mxGeometry width="50" height="50" relative="1" as="geometry">
            <mxPoint x="731.11" y="380" as="sourcePoint" />
            <mxPoint x="1110.0000000000002" y="380.2771799999998" as="targetPoint" />
            <Array as="points">
              <mxPoint x="961.11" y="380" />
            </Array>
          </mxGeometry>
        </mxCell>
        <mxCell id="mC2HP_9GWKOriePfmFjW-70" value="" style="endArrow=none;html=1;rounded=0;entryX=0.999;entryY=0.561;entryDx=0;entryDy=0;entryPerimeter=0;" edge="1" parent="mC2HP_9GWKOriePfmFjW-25">
          <mxGeometry width="50" height="50" relative="1" as="geometry">
            <mxPoint x="731" y="310" as="sourcePoint" />
            <mxPoint x="1110" y="310" as="targetPoint" />
          </mxGeometry>
        </mxCell>
        <mxCell id="mC2HP_9GWKOriePfmFjW-69" value="" style="endArrow=none;html=1;rounded=0;entryX=0.999;entryY=0.561;entryDx=0;entryDy=0;entryPerimeter=0;" edge="1" parent="mC2HP_9GWKOriePfmFjW-25">
          <mxGeometry width="50" height="50" relative="1" as="geometry">
            <mxPoint x="731" y="170" as="sourcePoint" />
            <mxPoint x="1110" y="170" as="targetPoint" />
          </mxGeometry>
        </mxCell>
        <mxCell id="mC2HP_9GWKOriePfmFjW-68" value="" style="endArrow=none;html=1;rounded=0;entryX=0.999;entryY=0.561;entryDx=0;entryDy=0;entryPerimeter=0;" edge="1" parent="mC2HP_9GWKOriePfmFjW-25">
          <mxGeometry width="50" height="50" relative="1" as="geometry">
            <mxPoint x="731" y="450" as="sourcePoint" />
            <mxPoint x="1110" y="450" as="targetPoint" />
          </mxGeometry>
        </mxCell>
        <mxCell id="mC2HP_9GWKOriePfmFjW-72" value="" style="endArrow=none;html=1;rounded=0;entryX=0.999;entryY=0.561;entryDx=0;entryDy=0;entryPerimeter=0;" edge="1" parent="mC2HP_9GWKOriePfmFjW-25">
          <mxGeometry width="50" height="50" relative="1" as="geometry">
            <mxPoint x="731" y="240" as="sourcePoint" />
            <mxPoint x="1110" y="240" as="targetPoint" />
          </mxGeometry>
        </mxCell>
        <mxCell id="mC2HP_9GWKOriePfmFjW-73" value="&lt;font color=&quot;#002244&quot; style=&quot;font-size: 15px;&quot;&gt;Linha defensiva&lt;/font&gt;" style="text;html=1;align=center;verticalAlign=middle;whiteSpace=wrap;rounded=0;fontColor=#ffcd00;fontSize=48;fontStyle=1" vertex="1" parent="mC2HP_9GWKOriePfmFjW-25">
          <mxGeometry x="710" y="180" width="180" height="30" as="geometry" />
        </mxCell>
        <mxCell id="mC2HP_9GWKOriePfmFjW-74" value="&lt;font color=&quot;#002244&quot; style=&quot;font-size: 15px;&quot;&gt;Densidade&lt;/font&gt;" style="text;html=1;align=center;verticalAlign=middle;whiteSpace=wrap;rounded=0;fontColor=#ffcd00;fontSize=48;fontStyle=1" vertex="1" parent="mC2HP_9GWKOriePfmFjW-25">
          <mxGeometry x="730" y="250" width="100" height="30" as="geometry" />
        </mxCell>
        <mxCell id="mC2HP_9GWKOriePfmFjW-75" value="&lt;font color=&quot;#002244&quot; style=&quot;font-size: 15px;&quot;&gt;PressÃ£o&lt;/font&gt;" style="text;html=1;align=center;verticalAlign=middle;whiteSpace=wrap;rounded=0;fontColor=#ffcd00;fontSize=48;fontStyle=1" vertex="1" parent="mC2HP_9GWKOriePfmFjW-25">
          <mxGeometry x="727" y="320" width="100" height="30" as="geometry" />
        </mxCell>
        <mxCell id="mC2HP_9GWKOriePfmFjW-76" value="&lt;font color=&quot;#002244&quot; style=&quot;font-size: 15px;&quot;&gt;Estilo defensivo&lt;/font&gt;" style="text;html=1;align=center;verticalAlign=middle;whiteSpace=wrap;rounded=0;fontColor=#ffcd00;fontSize=48;fontStyle=1" vertex="1" parent="mC2HP_9GWKOriePfmFjW-25">
          <mxGeometry x="710" y="470" width="180" height="30" as="geometry" />
        </mxCell>
        <mxCell id="mC2HP_9GWKOriePfmFjW-77" value="&lt;font color=&quot;#002244&quot; style=&quot;font-size: 15px;&quot;&gt;Esquema tÃ¡tico&lt;/font&gt;" style="text;html=1;align=center;verticalAlign=middle;whiteSpace=wrap;rounded=0;fontColor=#ffcd00;fontSize=48;fontStyle=1" vertex="1" parent="mC2HP_9GWKOriePfmFjW-25">
          <mxGeometry x="720" y="390" width="160" height="30" as="geometry" />
        </mxCell>
        <mxCell id="mC2HP_9GWKOriePfmFjW-78" value="" style="endArrow=none;html=1;rounded=0;entryX=0.999;entryY=0.561;entryDx=0;entryDy=0;entryPerimeter=0;" edge="1" parent="mC2HP_9GWKOriePfmFjW-25">
          <mxGeometry width="50" height="50" relative="1" as="geometry">
            <mxPoint x="731" y="530" as="sourcePoint" />
            <mxPoint x="1110" y="530" as="targetPoint" />
          </mxGeometry>
        </mxCell>
        <mxCell id="mC2HP_9GWKOriePfmFjW-80" value="" style="text;html=1;align=center;verticalAlign=middle;whiteSpace=wrap;rounded=0;fontColor=#ffcd00;fontSize=48;fontStyle=1;fillColor=#FFFFFF;" vertex="1" parent="mC2HP_9GWKOriePfmFjW-25">
          <mxGeometry x="1000" y="185" width="40" height="30" as="geometry" />
        </mxCell>
        <mxCell id="mC2HP_9GWKOriePfmFjW-85" value="" style="text;html=1;align=center;verticalAlign=middle;whiteSpace=wrap;rounded=0;fontColor=#ffcd00;fontSize=48;fontStyle=1;fillColor=#FFFFFF;" vertex="1" parent="mC2HP_9GWKOriePfmFjW-25">
          <mxGeometry x="960" y="470" width="120" height="30" as="geometry" />
        </mxCell>
        <mxCell id="mC2HP_9GWKOriePfmFjW-84" value="" style="text;html=1;align=center;verticalAlign=middle;whiteSpace=wrap;rounded=0;fontColor=#ffcd00;fontSize=48;fontStyle=1;fillColor=#FFFFFF;" vertex="1" parent="mC2HP_9GWKOriePfmFjW-25">
          <mxGeometry x="960" y="405" width="120" height="30" as="geometry" />
        </mxCell>
        <mxCell id="mC2HP_9GWKOriePfmFjW-83" value="" style="text;html=1;align=center;verticalAlign=middle;whiteSpace=wrap;rounded=0;fontColor=#ffcd00;fontSize=48;fontStyle=1;fillColor=#FFFFFF;" vertex="1" parent="mC2HP_9GWKOriePfmFjW-25">
          <mxGeometry x="960" y="330" width="120" height="30" as="geometry" />
        </mxCell>
        <mxCell id="mC2HP_9GWKOriePfmFjW-82" value="" style="text;html=1;align=center;verticalAlign=middle;whiteSpace=wrap;rounded=0;fontColor=#ffcd00;fontSize=48;fontStyle=1;fillColor=#FFFFFF;" vertex="1" parent="mC2HP_9GWKOriePfmFjW-25">
          <mxGeometry x="1000" y="265" width="40" height="30" as="geometry" />
        </mxCell>
        <mxCell id="mC2HP_9GWKOriePfmFjW-86" value="&lt;span style=&quot;color: rgb(0, 34, 68); font-size: 20px;&quot;&gt;4&lt;/span&gt;" style="text;html=1;align=center;verticalAlign=middle;whiteSpace=wrap;rounded=0;fontColor=#ffcd00;fontSize=48;fontStyle=1" vertex="1" parent="mC2HP_9GWKOriePfmFjW-25">
          <mxGeometry x="1005" y="180" width="30" height="20" as="geometry" />
        </mxCell>
        <mxCell id="mC2HP_9GWKOriePfmFjW-88" value="&lt;span style=&quot;color: rgb(0, 34, 68); font-size: 20px;&quot;&gt;4 - 3 - 3&lt;/span&gt;" style="text;html=1;align=center;verticalAlign=middle;whiteSpace=wrap;rounded=0;fontColor=#ffcd00;fontSize=48;fontStyle=1" vertex="1" parent="mC2HP_9GWKOriePfmFjW-25">
          <mxGeometry x="967.5" y="400" width="105" height="20" as="geometry" />
        </mxCell>
        <mxCell id="mC2HP_9GWKOriePfmFjW-87" value="&lt;span style=&quot;color: rgb(0, 34, 68); font-size: 20px;&quot;&gt;8&lt;/span&gt;" style="text;html=1;align=center;verticalAlign=middle;whiteSpace=wrap;rounded=0;fontColor=#ffcd00;fontSize=48;fontStyle=1" vertex="1" parent="mC2HP_9GWKOriePfmFjW-25">
          <mxGeometry x="1005" y="260" width="30" height="20" as="geometry" />
        </mxCell>
        <mxCell id="mC2HP_9GWKOriePfmFjW-92" value="&lt;font style=&quot;font-size: 15px;&quot; color=&quot;#002244&quot;&gt;Agressiva&lt;/font&gt;" style="text;html=1;align=center;verticalAlign=middle;whiteSpace=wrap;rounded=0;fontColor=#ffcd00;fontSize=48;fontStyle=1" vertex="1" parent="mC2HP_9GWKOriePfmFjW-25">
          <mxGeometry x="970" y="320" width="100" height="30" as="geometry" />
        </mxCell>
        <mxCell id="mC2HP_9GWKOriePfmFjW-93" value="&lt;font style=&quot;font-size: 15px;&quot; color=&quot;#002244&quot;&gt;Retranca&lt;/font&gt;" style="text;html=1;align=center;verticalAlign=middle;whiteSpace=wrap;rounded=0;fontColor=#ffcd00;fontSize=48;fontStyle=1" vertex="1" parent="mC2HP_9GWKOriePfmFjW-25">
          <mxGeometry x="970" y="460" width="100" height="30" as="geometry" />
        </mxCell>
        <mxCell id="mC2HP_9GWKOriePfmFjW-96" value="&lt;font color=&quot;#002244&quot; style=&quot;font-size: 35px;&quot;&gt;+&lt;/font&gt;" style="text;html=1;align=center;verticalAlign=middle;whiteSpace=wrap;rounded=0;fontColor=#ffcd00;fontSize=48;fontStyle=1" vertex="1" parent="mC2HP_9GWKOriePfmFjW-25">
          <mxGeometry x="1050" y="180" width="30" height="30" as="geometry" />
        </mxCell>
        <mxCell id="mC2HP_9GWKOriePfmFjW-98" value="&lt;font color=&quot;#002244&quot; style=&quot;font-size: 35px;&quot;&gt;+&lt;/font&gt;" style="text;html=1;align=center;verticalAlign=middle;whiteSpace=wrap;rounded=0;fontColor=#ffcd00;fontSize=48;fontStyle=1" vertex="1" parent="mC2HP_9GWKOriePfmFjW-25">
          <mxGeometry x="1050" y="260" width="30" height="30" as="geometry" />
        </mxCell>
        <mxCell id="mC2HP_9GWKOriePfmFjW-101" value="&lt;font color=&quot;#002244&quot; style=&quot;font-size: 40px;&quot;&gt;-&lt;/font&gt;" style="text;html=1;align=center;verticalAlign=middle;whiteSpace=wrap;rounded=0;fontColor=#ffcd00;fontSize=48;fontStyle=1" vertex="1" parent="mC2HP_9GWKOriePfmFjW-25">
          <mxGeometry x="955" y="260" width="35" height="30" as="geometry" />
        </mxCell>
        <mxCell id="mC2HP_9GWKOriePfmFjW-100" value="&lt;font color=&quot;#002244&quot; style=&quot;font-size: 40px;&quot;&gt;-&lt;/font&gt;" style="text;html=1;align=center;verticalAlign=middle;whiteSpace=wrap;rounded=0;fontColor=#ffcd00;fontSize=48;fontStyle=1" vertex="1" parent="mC2HP_9GWKOriePfmFjW-25">
          <mxGeometry x="957.5" y="180" width="30" height="30" as="geometry" />
        </mxCell>
        <mxCell id="mC2HP_9GWKOriePfmFjW-105" value="&lt;font color=&quot;#002244&quot; style=&quot;font-size: 17px;&quot;&gt;Escale seu time&lt;/font&gt;" style="text;html=1;align=center;verticalAlign=middle;whiteSpace=wrap;rounded=0;fontColor=#ffcd00;fontSize=48;fontStyle=1" vertex="1" parent="mC2HP_9GWKOriePfmFjW-25">
          <mxGeometry x="344" y="120" width="146" height="30" as="geometry" />
        </mxCell>
        <mxCell id="mC2HP_9GWKOriePfmFjW-27" value="" style="shape=image;verticalLabelPosition=bottom;labelBackgroundColor=default;verticalAlign=top;aspect=fixed;imageAspect=0;image=data:image/png,iVBORw0KGgoAAAANSUhEUgAABbUAAAH6CAYAAAAwfaHmAAAAAXNSR0IArs4c6QAAAARnQU1BAACxjwv8YQUAAAAJcEhZcwAADsMAAA7DAcdvqGQAAEQNSURBVHhe7d0NnFZ1nTf+LwLykCCIKKioAySBWuAz+JBClsJqBa0W5FYLbQ/q9gB7d5dm1uK2bdh238qmG9xrf4PdLFnTxDYFLRO0FHwEMRQVH0ZIh4CFQXn4n2vmd81cM1wzDFytzpH3+9VZvr9zXd85F77YM2c+8zu/02FHJgAAAAAAIAf2SX8CAAAAAEC7J9QGAAAAACA3hNoAAAAAAOTGnzXU3rpte6oAAAAAAHirbd26LVVvH3v8oMjX1tfGnfc/Fw88Xh2PrVwbK557LWrWb4mNm15P7wCgEus/Ny1VALwlLlyfCgDeCj3f/cFUAVCJ/d7RNXr32C+OGjQgjnnnkXHS8KHxgTNOij69e6Z35M9uh9qFMPuGWx+Pn/zqqfjdEy9nX2GfbOuYvdIh+1+2Ff4EoGI7/vaSVAHwlvj4Hs39AODPpMOgs1MFwJ9Hdn1bFwVvjxOPPSr+cuyZ8dcXjMtluL1bofbPf/10/Ou8R2P+b5/JOjtF7JPCbAD+7ITaAG8xoTbAW0qoDfA/qRBwb49zzjg+Pv3R82L8OWek/fnQ5jW1f3jLYzH1e/fE/Puezbr2zbZO2V6BNgAAAABAvhRW3egYv7x3afyvb18X1829Je3PhzaF2tf/7NG4fOZ98fSLG+oD7cKSIwAAAAAA5FiHePqFtXHF1TfEv9w4L+1r/3aZTs+/b1V898bfx5qa2uzdndNeAAAAAADeDtau++/43qyfxa133Zf2tG+thtovvLIhZt70cDz94nqBNgAAAADA29TTL6yJH9z483j+xVfSnvar1VD7pjtXND4UEgAAAACAt6kO8ct7H4yf3LYgjduvFkPt19bXxs/vebo+0LaGNgAAAADA21uHfeK2BYvjj6/9Ke1on1pMq+956IX4zdIXsnd0THsAAAAAAHj76hD3PvR4LFy8JI3bpxZD7d8ufTHN0O5QvwMAAAAAgLe5feK+3z+W6vapxVD7oWXVER3M0gYAAAAA2Gt06BBLl61Mg/apbKi9ddv2WPVyYd0Us7QBAAAAAPYeHeLZ1dWpbp9anKm9unpDXSoPAAAAAMDeY3X1H1PVPpUNtTt1LO4WagMAAAAA0H60OFMbAAAAAADaG6E2AAAAAAC5IdQGAAAAACA3hNoAAAAAAOSGUBsAAAAAgNwQagMAAAAAkBtCbQAAAAAAckOoDQAAAABAbgi1AQAAAADIDaE2AAAAAAC5IdQGAAAAACA3hNoAAAAAAOSGUBsAAAAAgNwQagMAAAAAkBtCbQAAAAAAckOoDQAAAABAbgi1AQAAAADIDaE2AAAAAAC5IdQGAAAAACA3hNoAAAAAAOSGUBsAAAAAgNwQagMAAAAAkBtCbQAAAAAAckOoDQAAAABAbgi1AQAAAADIDaE2AAAAAAC5IdQGAAAAACA3hNoAAAAAAOSGUBsAAAAAgNwQagMAAAAAkBtCbQAAAAAAckOoDQAAAABAbgi1AQAAAADIDaE2AAAAAAC5IdQGAAAAACA3hNoAAAAAAOSGUBsAAAAAgNwQagMAAAAAkBtCbQAAAAAAckOoDQAAAABAbgi1AQAAAADIDaE2AAAAAAC5IdQGAAAAACA3hNoAAAAAAOSGUBsAAAAAgNwQagMAAAAAkBtCbQAAAAAAckOoDQAAAABAbgi1AQAAAADIDaE2AAAAAAC5IdQGAAAAACA3hNoAAAAAAOSGUBsAAAAAgNwQagMAAAAAkBtCbQAAAAAAckOoDQAAAABAbgi1AQAAAADIDaE2AAAAAAC5IdQGAAAAACA3hNoAAAAAAOSGUBsAAAAAgNwQagMAAAAAkBtCbQAAAAAAckOoDQAAAABAbgi1AQAAAADIDaE2AAAAAAC5IdQGAAAAACA3hNoAAAAAAOSGUBsAAAAAgNwQagMAAAAAkBtCbQAAAAAAckOoDQAAAABAbgi1AQAAAADIDaE2AAAAAAC5IdQGAAAAACA3hNoAAAAAAOSGUBsAAAAAgNwQagMAAAAAkBtCbQAAAAAAckOoDQAAAABAbgi1AQAAAADIDaE2AAAAAAC5IdQGAAAAACA3hNoAAAAAAOSGUBsAAAAAgNwQagMAAAAAkBtCbQAAAAAAckOoDQAAAABAbgi1AQAAAADIDaE2AAAAAAC5IdQGAAAAACA3hNoAAAAAAOSGUBsAAAAAgNwQagMAAAAAkBtCbQAAAAAAckOoDQAAAABAbgi1AQAAAADIDaE2AAAAAAC5IdQGAAAAACA3hNoAAAAAAOSGUBsAAAAAgNwQagMAAAAAkBtCbQAAAAAAckOoDQAAAABAbgi1AQAAAADIDaE2AAAAAAC5IdQGAAAAACA3hNoAAAAAAOSGUBsAAAAAgNwQagMAAAAAkBtCbQAAAAAAckOoDQAAAABAbgi1AQAAAADIDaE2AAAAAAC5IdQGAAAAACA3hNoAAAAAAOSGUBsAAAAAgNwQagMAAAAAkBtCbQAAAAAAckOoDQAAAABAbgi1AQAAAADIDaE2AAAAAAC5IdQGAAAAACA3hNoAAAAAAOSGUBsAAAAAgNwQagMAAAAAkBtCbQAAAAAAckOoDQAAAABAbgi1AQAAAADIDaE2AAAAAAC5IdQGAAAAACA3hNoAAAAAAOSGUBsAAAAAgNwQagMAAAAAkBtCbQAAAAAAckOoDQAAAABAbgi1AQAAAADIDaE2AAAAAAC5IdQGAAAAACA3hNoAAAAAAOSGUBsAAAAAgNwQagMAAAAAkBtCbQAAAAAAckOoDQAAAABAbgi1AQAAAADIDaE2AAAAAAC5IdQGAAAAACA3hNoAAAAAAOSGUBsAAAAAgNwQagMAAAAAkBtCbQAAAAAAckOoDQAAAABAbnTYkUl1Ex2OvzqiY9c0gnpVxw+PqRcNitEHd0l7tsSqh56Oq3/ycCxcnXa1orL+njH6ouFx8ah+MbRXp7SvDf0nD49rz+0bvdOwZetj4ZUPxOw0aqpvTP788Jh4ct/ov2/9ntp1NbFo0WNx9Y0vxKr6XW02+fNnx+iD0iCz6qE74/Lb0gCSHX97SaogsyHadJ6t0y1iVFVE3XfxPe0r1fxr9IwYfViq26D2tax/RcTy7M+iqmMixh5R5lhlFPrnP56dK7PPUadHdvysf8QBabwLlfazF/t42ctkyKyL5XcviZfTqHW9Y9jIEdGv7oRXG9UPLoplxfPRLvQ/dnQMPbBQvd37oLwOg85OFZQaHJOn/WVMPG1w9E/RQu1rK2P+f/40Lv/Zyvodraqsf8RHPhXTPnxSdi2ZwoHYGKvuvzeuvuFnsfC5tKsFlfQ2cdpH4toPvbMx59j0h5h9RfY10nCXKu1n77B9W+xY1X7/VQi1aaO+cdn3z4nLR/UsH0C8vj7m/9svY9zstWlHcxX2n35qLJh2bIzu3zHtaKbQf/3PY9yN69OOEl+8IHZM7JsGramJ2SfNjSlpVFQ14ey4/fNHxdAeaUcztS8/F9P/9y/iquVpx65M/GDUfPGw6JWGBctvmxnD/j4NIBFq00R2fd3hm6nelZMiXr40ol+h3tO+Ekt/GXHcnDQoOCJiyfTsojwNW1QbMffmiKlZf3XaVarfsIjZn44Y21KgsS1i3n9EXNxC/+hzImZ9NDtPt/CtoeJ+EGrTosVxVYdRcXkatW58zFl9c0ys+2Vgdcy9oH9M+mndC7s0ffGOuOyUQvV274PyhNo0V3XepXHzt86PET3TjmbWPXZrXPyFa2JuCwFxRf1HnB9zrvtUTDxqv7SjmS3VMf9fvhnjri0TjFfSu5PhMeuOq2LyUcVgPLP+4Zg24u/i6jRsXaX97DXaeaht+RHaoGdM/cEHY3pLgXTBvj1j7Gc+GAsuKvedocL+AcNjwdeHNw20t22L2tdTXVDov3RC3H5eGpfqUZzVvQdOPytu/1KzQLtw7G2pznTtf0RM/z8fjKkD0o5WDYvbL2oaaAO0dwt/m4qi7CJ/fhuut+feEDGpNFA+OGL04FRnqpdFjLsy+1otzOib+8OICS0E0gULs9dGZe9p6W6ZSvsBAGhHxnw5bv9Oy4F0Qa9jz4/ZP/xyjE3jJirqPylm/fAzTUPpba9H7ZZUF3TpF2O/9N1Y8OnmU0Qq6d1Z1WWfiUmlgfRuqrQf2guhNrt23hkx7fjiciERtaufiUs+MTM6nDQzjpvxVCxvCCO6xOiLzoqpadSgwv7Lvn5KjC6mwK9vioVz74yBI6+LbqfNjIFffzgWr0uvRfcYe+EZUZVGRRcf1D1VEdUPPBCTrryzhe2+mJneV++wmPPFYTG0eK5/fX3Mm3FTdCgce+SNMWb2c1FdDNZ7HRaXf214GrRs7LePj7F90gBgT50Qsez6iJqWtsk7z7ausyd9z0XMKTNT5doldROxW7TqNxGT7kuDwdnX+HbEjhkRC76R/Zkda9ap6bU/RVyevbe5dUsjphb798++F0zL+m6s317+anY+zfYVVGfvufx39XWpSvsB2m58zHqsJmpqWtpmx/gWlmy6bH659zduU7Pzdjlv9z6AnfWLGV8cE0OL0cK212Lx//t2DBx0dnQY/e24+v7XGq5Nuw4aEzOuav7zeWX9VZd9KiYNKoYDG+t7jxoX3YadHQO/+LNYXJNeiv1i9Mc+FaPTqKCS3p0c8amY89HBbVrCr6xK+6EdEWqzCz3j2guPaAw51r0Ql0+4I2ampTaW3nRnDPv+c42z4HodFpOmlf7as9L+Y2P0kY0ztJfecnOM+f5TDbPqVv3XfTHq5urGYOWwvjE5lUVdSyZq16x5MObOf6qF7blYmt5XZ+zwGN0w+3pLLPyXG2PCTcXlUdbHwut/EaN+trbh2L2GHxXXtjZb+/Sz49ozi3+39bF0eemvZQF2Q/bdu3f37LzTylbWHvQtzk6MxXPj+I9Gwzm2+jcRi95IgzKWLktFZsYnI912n2THmfzhaLhgX1pY7zrVRbNvbpxhPfGvIqa/Jw0yhWVL5pQE8HNvbfyMRZX2A+yObr16Ra9WtpbCg269y7+/uJVex5Z6u/cB7OQjl8akYQ0zzmL5T78do65aWH8N+dzCmDbpCzFzWXHW2b4xdMxfNs0GKuy/+JTGILj2wZ829mZW3XZ9jPrH3zXmGkcMjompLKikt6l+MfUfzo+R6Zq99rGVO11Dt67SfmhfhNrswrExalAqM8vvvXvnNZZu+03c/myqMyOGH5uqgkr7n4urvlOcSX1HTPtJmTWzN2xtDLW7dNzph4ahfYq/it0SL5ccZ5eO79kYxr9aHbPnprrEqu8/F0s3pUHHvjFqQqp3cljM+vyghnVbq+99KOYU+wDasYV3pSIz6YyIsdlW50/Za39IdRlj/6pxBvjFR6SdpTpH41JMGyIabropKJ0dvn/EJSelukSvEdn+NNu68P4mD9aptB8AgHZl4vsHN/58vn5ZzL7s4TQoqo5p/7ms8Zqy7+AY/+FUZyrt71pYLmRT/bZ8RZlw4GevRsOE69g3upU8fKaS3ib+empcfkpawmTLypj5hT80ZiFtUWk/tDNCbVp3wYElD9BaH8t/VSZUzvbPfbpkf/8DG5cQqbQ/e23hguJM6mdi4eq0u8TYY3s2BiMv1cT8VNY7Kvo3rIe9LWpfjRhx3skx68q/iEU/+mDcfOUZMfX4VhbUKtq0JRansqktsblkfe2qQaWBfKPRXzsjJg1K/yFefS4un1oyhRGgnarNTlXX/ikNzsjOZdn5dHTJRfZVj2bvSXVzXdPM78JWboZi7UsRi1Ld790RQ1NdUP1Kyczp01p+IOXI7LWiRdnXK6q0HwCA9mX0gANSlV1HPr2s/AMN/9+yWN4weeyAqCp5EG2l/Zd8aFx0O7Z+O+6KtLPUh/tE71TGto3xcsltgJX0NvpILPj88JR9vB5L53wzpu3WpIxK+6H9EWrTuiHvaAyMN22K5Q+kupmFy9Y3/kazxzsaw4lK+8sYcfpRMXFsYTshZv3rRXHzmGIovSUW3vJANH0ua/foWrzDKNP/wimx5OsnxOSxR8TIoYfF+LHHxowfXBQ1PzojJjZfOmTNlsaw5pDe5R8EeXr/GFbyEMmu70j38ZQacGrMGNs7hTrZZ7zxFzG7rgZo3xY9XpizUm/yiPqZ1b2GRVxcvyvi9uz83da7TrIT6rrsvYVt8W8ixl2Xvvb+EVePbhp8ryoJmEcfXD4UL6gqOS/PeyUVmUr7AQBoTz4SVQ3TrCNeLp/6Zu6IVcUVQzP9D/tIqirt35V+MX3S8MaZ4CuWNXteV2va1jv5X/8yRqfku/apBTHtqoYFS9qk0n5oj4TatN22rSW3xDRTMlu5RZX2JxdfenbMubKwnRyTh/esCyvWrVkbc79zU4y5sflM8N4lM7W7x4iGp0I01WvosTH76rOaPuF4/tpYXvxcHfvGpK+d0HS234CjYs6lJeuFZ7ru1zzU7hnTv3lsjEjB+rqHHowpZe42Atgtv8susi+K6NDCNve19L7mdqfvjew0eFuqM2OHpCI7zY0dk+rMvDbeeLL4l9kZ+TP126gfRt0vIAtfZ9G3IyYeWP+ecnq1lEhnurXhKqbSfoBdmxeTBnSIDh3KbxP+veXg4PKR5Xvqtr8vf59gwdu9D6A1tZuaLx1SVB2bt6ayFZX2Nzf2O1fF1OIP/dnXmPf9a9q8VnWbesd8Iy4bk2aab8veM+N7zSbz7UKl/dBO+XGOt4Ve3d4RQ489oswt5hti+bObYt2mbdnJe1useuixmPKJmdHhpGz7xN0x8/HGhzV2PXJITP9iyVIkq38TMxc1TkHsdfzJsWTBRbHo+2fHzT+YGC//+9kx8ciOUVt8lkRBs3C+6qKz4uJj0rIjm6pj5j887EEMQC7UrojG2zLT0iNFo0oeujh7abP1sNvqTxGrXotYUmZZKQAAyIOx35kdN3/k8HRn4Oux/GfXxIQFdYNdalvvSTHnstOiKo1W/dc1MamNX79epf3QfnXYkUl1Ex2Oz36U7djK9Cb2Dl+fGDvOS/eobHghpo35efm1pyZ+MGq+eFhaaqQmZp80N6YUykr7yygsPzK0R88YdVLvqKo6LEYP7d5wa3nts8tiwgV3N1tXuzWHxaybPhiTj0zDrH9g1t8YPB8Rs/793JhcXA+7mcLxZr46KKYeXz8DfN1D90XvzxV/6zs8Fvzq1Bhd95faFkvnzo3jvt84k3zqD6bEjNS3/LaZMezv60posONvL0kVZFZm35u/meojIi4bWbgXpbxRZ0XDU833tG/+DRHj0gXv5C9EzDqhvq6zKeKSz0TDrZE3/0vE+JLQu6zC8iPbswvpZ7Pthaz31oiFab3ukROy+kONy4QsviX7LDfX1+M/n3397DOXU704on927DrZ19iRfY2CSvuhwcfLXiZDZnFc1WFUXF5Xj4iJX50Ux7Vwcu11+uSYfEpxQb7qmHtB/5j00/rR2M/NiNHFpKG5d42PqecVX3y790F5HQadnSr2bh+JBUs/E6PTHLTlPzs7hn2lvm5u1q/uzH5+r6/X3X999J70s6yqtL+85qF09YJ/i1F/87M2TWRra+/oq2bH7R9N71v7u5hyymUly5l+OZY9fW798q3rH45pI/5up7yl0n72ctu3xY5V7Xdev1Cb1n1mQmye3C+daFsJm794QeyY2Le+3rY2rh55U0wr1JX2t0HVRR+MJZcWA/GIpTfdGMfNKPdAyhaUHrts8N4zJn7xjLh87GExtFd9uF27bn0sXfRwXHzlYzHpxxfH1KPqdseqBT+PgV99oa6ees2UmHFyfWhdeBDFuI/d3eQWH6E2uyLUponScPqkiJcvLazA1wZ70rchYsrno+GCt2pwtjW7JHh5dXbuSqF0a8Fxi/4YMenKiLnpa8yYnp0Xj6ivV90dMfD/1df9LsiOdV593dzSX0YcN6e+HjEpYsk59XWl/dBAqE2LSkPt8TFn9c0x8bC6wS40DX2nL94Rl5U8iKxlb/c+KE+oTb3hcfOvvxvj03l23W+vid6fuLV+0MTouP3+r8bY9ON99YJvR/+/KfwUXmn/zt6MQDtO+3Is+9dzo34V1Y2x8KoPx5h0jVtvF6F0pf3QzkNty4/Quoc3xcupLCykWjUxlc1MHPCOVGXWbYolqay4vw1W3Xh3zC+5fb1q0MBUtdGaLbu4dX59zP3+L2LY+6+rX7Yk27q9/8YYdeVjsTT75jiif3pbbIlVy+oD7YizYnIKtAu6DhgSt9/z2dhcsk0f3vj60A+k/T86I+0BeOusW9EYaBesWhmx8PGmWzHQLph3X/aeVLfZgRGXnJXqzKLi6TPTP/0gUVD9bCEiKe/lkhdGHZyKTKX9AAC0Jw/H8rWN63726j+4YTmNpt4Z/dPS0QUvP1cM4yrtb+pNCbQzF3/69BRIF+wXo750e2x+rHQbUx9IF/QcHtPr9t0Yt/9V/a5K+6G9E2rTugeei+Wvpjq6xLCThqW61LCYNKzxAYnrnn0hGp6FWGn/BX8RzzQEwRfErAFpfxM9o2unVGZ69SgJyL9yQUOIvPnHZ5X9xlU16B0Ns7zj9W2NIfyHzt3lsas+MyhGFW+531QTi29MdXP7doyu3ZttpSuaFF/vVn6ZE4A30/ySZ3cVZmmPPqb81nBOfSRi4SupLvhTxLTvRIxJW0vPl9/8RioyqzakItP1iIjJqS483HJRyWsNsn3zStYDHJVmeRdU2g8AQPsy+7HnU5U58p0Nd/iVqvrG8BjR8CP187Hkx6nMVNpfr19MnFEaSkdU/7atgfbu95bmHAVdu++701aqft9+DX2V9kN7J9RmF5bFvBWND0vsd/LxMef0NEjGXnl8jO2TBrEpFs0vfZJwhf3PbYloCIL7xoSvDd8pmB4x+eQY3TBbOmLV6udSlfnjtsb+owbFrItKHgRZMGB4zDqzcQHEJoH6LWujOlo59tATYtaE4tIqWe/yp9MtqAXbonbTLrbSh0q+nvZtbvakSYA322sRN/8u1ZkZX45Y8JXy27Vj0psyc5eloqB7dlG8unFW94ySkLzBHyNm3p7qzOjS2/Z7ZN8bSm5cmf6ruiW5m1ic7WuYTZ69d2zJrJqK+wEAaFdW3bAslhZ/XO44OCb9w0ea/nx+xEdi1ocGp0Fm2cNxVUk0UGl/fSh9Vcz+cGkofX2M+kRbA+3d7639741Ru+n1lrct6Y1J/f6sZ2saV9gP7V0Ha2qzSwNOjkU3ntD40LFtW2L5A8/F0nURvZo/qPGph2PYx+9remKuqL9nzPjxxJh6VOMM5tpXa2LRw2ujekun6Dfs0Bh9ZOMyHvH62rj6YzfFtIblSIbF7Xec1RiaF4798Iux9JXsLN2lZ4w8vV9UFX85+XpNzJ46N6Y8kMaZyVd/Kmad3jiLPNatj+WvFr4Tdoz+R/aMtMR2mePu2qybLm54QKU1tSnHmto08Satqb3qNxEDf5gGZ0TUfDo7V6dhc+uWRvT+XhocE/HMVxpnb5euV10w+qzsnHp8duzO2UX8UxHT7ypZwiT7+WHJNwqPWivxSsS4adHw4N+q7LPPGFP/WZbfF3FJ9jmLStfjblBpPxRYU5sWWVO7PGtq8+dlTW1Kjb3mxrh9bOOVbO0Ly2L+76ujtssBMfK04VHVMIfttZj/lQtjXLNnPFbSP/n7N8a15zVOaottG2PV06/tNHGiaPntk2PCtfV1Jb2t+uvvRs1lw+uv1fdkTexK+3n7s6Y2ubf6gZg0+4WobvitZpcYOuqomDj2qBhbEkjHqy/E5V9tFmgXVNS/PqZ99f5Y2LCESUTXPr1j9JhC/8BmgfammH/9L5sFy8ti3D8si+XF5bMKxz5+YN2xJ44pCbS3bYqF1/+iSaBdMHvqwpj9dPGDZ3r1jKGDemdbaaBd7rgA+bSwZJb25BEtB9oFvY6JmJrqeDxiXslslhHnRNxcMlt64d0Rk2ZEjPl29ufNTQPt2y9uFmgXHBxx7aWNIfmq7HNNyHoL/aWB9OTsPWUD6Ur7AQBoV+Zfek3Mfqpxbeyuhw2L8R8enf18XxpIvx7Lf3b1ToF2QSX9I4eVhNIFHfeLqqMOj6EtbSXLl1bSC7RMqE2brLrx5zHqyodj4cslAW+DbbHqoYdj0t/8PK5uIditqH/1wzHm3Jvikvlro7pxJZNG27ZF9fKn4pJP/1uMu3F92lni3rtj2Kd/E3OXb2q65Eey7tnn4uorb44x5XrjuZjysZuzY9fEupZ6v9rCcQHy5pWIuY+kOjN2SCpa0jl7z7hUZ+Y8nopk/KcjXv5qxMXvSTtKHZztvyh7/fLsaxyY9jVTmF295NsRU8s8jqFftm9O9tqs7D0tqbQfAID25Hcx5dwvxCX/+XzZn89j/fMx95tfiGFfKZml0USl/UB7YvkRdlvV8QNj5LGHxbgjI5b97oVY/NgzsXA3Zin/WfoPTk8u2FATc+9dW1+3Sc8YPaZf9Kub4L01qnfz2CNOPyqG1j0Ycvd7YXdZfoS3lTci1hUfDLlPRK/dvMSo3RTxcna6L9zNc1zfrL9kZai2qLSfvZTlRwDeUpYfoWWDY+yHh8WoE46OfjVPxMKly2LugpXptbaotB/2Au18+RGhNkA7JdQGeIsJtQHeUkJtgLeQNbUBAAAAAODPQ6gNAAAAAEBuCLUBAAAAAMgNoTYAAAAAALkh1AYAAAAAIDeE2gAAAAAA5IZQGwAAAACA3BBqAwAAAACQG0JtAAAAAAByQ6gNAAAAAEBuCLUBAAAAAMgNoTYAAAAAALkh1AYAAAAAIDeE2gAAAAAA5IZQGwAAAACA3BBqAwAAAACQG0JtAAAAAAByQ6gNAAAAAEBuCLUBAAAAAMgNoTYAAAAAALkh1AYAAAAAIDeE2gAAAAAA5IZQGwAAAACA3BBqAwAAAACQG0JtAAAAAAByQ6gNAAAAAEBuCLUBAAAAAMgNoTYAAAAAALkh1AYAAAAAIDeE2gAAAAAA5IZQGwAAAACA3BBqAwAAAACQG0JtAAAAAAAaDOh3YKraJ6E2AAAAAADJjjhyQL9Ut09CbQAAAAAA6u3YESOGDU6D9kmoDQAAAABAsj1OPfHYVLdPQm0AAAAAADI74vTjj4nRI49L4/ZJqA0AAAAAQMSO7XHemJFx4AH7px3tk1AbAAAAAGCvtyPOOf2EuPC8MWncfgm1AQAAAAD2coMOOyg+d9EH4/BDD0572i+hNgAAAADAXqxvr3fEl6d8JM5/36lpT/sm1AYAAAAA2CvtiEGH9Y1vffmT8fmLxqd97Z9QGwAAAABgr7Ij+9+2OOf0EfFPX/1sfHbSh9L+fBBqAwAAAAC87RWC7O3ZtjVOPGZQ/NNXPh0//uevx/hzzkiv50eHHZlUN9Hh+KsjOnZNIwDebDv+9pJUAfCW+HjZy2QA3iQdqkanCoBK7PeOrtG7x35x1KABccw7j4yThg+ND5xxUvTp3TO9I39aDLWv/Ow50WXfTmkEwJvta/cMSRUAb4UdN3wvVQC82TZsiuhxml8uAlCe5UcAAAAAAMgNoTYAAAAAALkh1AYAAAAAIDeE2gAAAAAA5IZQGwAAAACA3BBqAwAAAACQG0JtAAAAAAByQ6gNAAAAAEBuCLUBAAAAAMgNoTYAAAAAALkh1AYAAAAAIDeE2gAAAAAA5IZQGwAAAACA3BBqAwAAAACQG0JtAAAAAAByQ6gNAAAAAEBuCLUBAAAAAMgNoTYAAAAAALkh1AYAAAAAIDeE2gAAAAAA5IZQGwAAAACA3BBqAwAAAACQG0JtAAAAAAByQ6gNAAAAAEBuCLUBAAAAAMgNoTYAAAAAALkh1AYAAAAAIDeE2gAAAAAA5IZQGwAAAACA3BBqAwAAAACQG0JtAAAAAAByQ6gNAAAAAEBuCLUBAAAAAMgNoTYAAAAAALkh1AYAAAAAIDeE2gAAAAAA5IZQGwAAAACA3BBqAwAAAACQG0JtAAAAAAByQ6gNAAAAAEBuCLUBAAAAAMgNoTYAAAAAALkh1AYAAAAAIDeE2gAAAAAA5IZQGwAAAACA3BBqAwAAAACQG0JtAAAAAAByQ6gNAAAAAEBuCLUBAAAAAMgNoTYAAAAAALkh1AYAAAAAIDeE2gAAAAAA5IZQGwAAAACA3BBqAwAAAACQG0JtAAAAAAByQ6gNAAAAAEBuCLUBAAAAAMgNoTYAAAAAALkh1AYAAAAAIDeE2gAAAAAA5IZQGwAAAACA3BBqAwAAAACQG0JtAAAAAAByQ6gNAAAAAEBuCLUBAAAAAMgNoTYAAAAAALkh1AYAAAAAIDeE2gAAAAAA5IZQGwAAAACA3BBqAwAAAACQG0JtAAAAAAByQ6gNAAAAAEBuCLUBAAAAAMgNoTYAAAAAALkh1AYAAAAAIDeE2gAAAAAA5IZQGwAAAACA3BBqAwAAAACQG0JtAAAAAAByQ6gNAAAAAEBuCLUBAAAAAMgNoTYAAAAAALkh1AYAAAAAIDeE2gAAAAAA5IZQGwAAAACA3BBqAwAAAACQG0JtAAAAAAByQ6gNAAAAAEBuCLUBAAAAAMgNoTYAAAAAALkh1AYAAAAAIDeE2gAAAAAA5IZQGwAAAACA3BBqAwAAAACQG0JtAAAAAAByQ6gNAAAAAEBuCLUBAAAAAMgNoTYAAAAAALkh1AYAAAAAIDeE2gAAAAAA5IZQGwAAAACA3BBqAwAAAACQG0JtAAAAAAByQ6gNAAAAAEBuCLUBAAAAAMgNoTYAAAAAALkh1AYAAAAAIDeE2gAAAAAA5IZQGwAAAACA3BBqAwAAAACQG0JtAAAAAAByQ6gNAAAAAEBuCLUBAAAAAMgNoTYAAAAAALkh1AYAAAAAIDeE2gAAAAAA5IZQGwAAAACA3BBqAwAAAACQG0JtAAAAAAByQ6gNAAAAAEBuCLUBAAAAAMgNoTYAAAAAALkh1AYAAAAAIDeE2gAAAAAA5IZQGwAAAACA3BBqAwAAAACQG0JtAAAAAAByQ6gNAAAAAEBuCLUBAAAAAMgNoTYAAAAAALkh1AYAAAAAIDeE2gAAAAAA5IZQGwAAAACA3BBqAwAAAACQG0JtAAAAAAByQ6gNAAAAAEBuCLUBAAAAAMgNoTYAAAAAALkh1AYAAAAAIDeE2gAAAAAA5IZQGwAAAACA3BBqAwAAAACQG0JtAAAAAAByQ6gNAAAAAEBuCLUBAAAAAMgNoTYAAAAAALkh1AYAAAAAIDeE2gAAAAAA5IZQGwAAAACA3BBqAwAAAACQG0JtAAAAAAByQ6gNAAAAAEBuCLUBAAAAAMgNoTYAAAAAALkh1AYAAAAAIDeE2gAAAAAA5IZQGwAAAACA3BBqAwAAAACQG0JtAAAAAAByQ6gNAAAAAEBuCLUBAAAAAMgNoTYAAAAAALkh1AYAAAAAIDeE2gAAAAAA5IZQGwAAAACA3BBqAwAAAACQGx12ZFLdxJWfPSe67NspjSCzeWM8vfrVeHnjtrSjc/QecFAM6dsl2vQvpXl/x67R//C+Mah35/rxLmzduD5WrP5j1GxOO7p1j4HZ8Q/Zr9zvZt6INS+sjw1ptLPOcUDf/aJ3lz39vU7zr98lDj1sv+iaRvW2x4Y1NbHm9TQsp0u3OPSA7tG1YxpDia/dMyRVUOrQmPy3Z8bEkYdG/y71e2pfezHm/+KeuPyWF+t3tKqy/hEfOjem/cXQGHFA8cy/OVb97rG4eu49sfD5tKvE6E+Oj8nv7JZGO9v8yrMxb8F9Mf+JtKOMyX87KUYfnAa7tDmW/GJeXL04DYsOHxxTJ54ZE046IHqlXbv334290Y4bvpcq9ma1r0QsWp0Gu3Jgdt47sr7c075yCl9r4dKI5WvSjkz/QVnPiRH99k07mtnV8btlxxwxIHbvOjS7rl16X/ZZSr5u1ckRY7NLlqbXwS2otJ+9yoZNET1OKxtXAIBQm7bYFCvufTTmPfxq+ZB4/wEx/rxj4oTeLQXEb8RLjzwac35THTVpT6neQ98dn3jvgDiopWx7+6Z44r5H49ayx+8Sg04cEZNO6dPsQrgm7r5mUdyZRi3p0eeQOP2MYXHaYSnZaaMNK5fGtXe8VPJ5hsRnLx0ch6dRvS3xyB13xU9WpmGLusfRpw6PCcf1djFPE0Jtmqs6d3zcfPmpMaJH2tHMuifui4u/Mi/mlgmXCyrqP/zUmPP9c2Pi4BYC6i2vxfxZN8S465sGxFNnTY8ZJ7UcahfVvrQyZv6fn8S0O15LexrN+vnVMbkqDXZpcyz87uUx5sY0zIz98ufi2o8NjqoWTvW7+u/G3kuoTUH1LyP6X5YGu/K57N/NlPpyT/uaeDXi6n+KmHZXGpcx/gsRs/8qGn5hV9TW44/Nemf8dcTQFr43FK26O2LKtyMWZp+puX4nRMz8RvZZDkk7yqi0n72PUBuA1lh+hF14I1bcsyh+VBIo9+7XJwYN6BMHdU87/rQ65v34/vjt2jRuYns8//vfx7UtBNoFNcsfje/fsjJeKk4Ab2JTPLJgUcxpKVCPLfH07++Pf76zuoXXW7fh1Zdi/n/eFd+9q+XPt5PNa+LuX5cG2pUqhPaL4p/vWRO1aQ/ATt57Qdz+rZYD6YJeR58as6+5IMamcRMV9Q+NWdec3zTQ3rY1arekuqDLATH24s/Fgk8ekHbsnq6HDI6p3/lKLPvW0LTnz6Pqk5+LOZ9sFmhv2ZqKeq3+dwN4i9SuiBj3sdYD7YJ5/yc7S18RsSqNd9f8/y9i2ISIqx5LO8pY9cuIUdPKB9IF1Q9GTPhkxNyX0o5mKu0HAGjOTG1at/aZuPY/lkfd9WX3Q2L8h46JE/qkKdXbt8SKBx6KHz2Y4uChx8cV7+vXZLbx1uqVcd1PV6T+PnHa6cNi9KCe0bXj9qhd+2LMv+PRePBPdW+NIe87Kz4xtJiU19vw1EPx7f+qrh/s3y/Gjh4apxzSPTrF9qhZ/YeYd9fKeHpT4cUucdaHR8fZhxV/T1M6U7tfjJ/47jhmv7pBvLFpY6xZvzmef/IPcf9TGxvC6R7HnhhfOvOgXcyW3h5P37cwZi8pTXIKdj1T+6zz3x+n96uv62zZGI8/siLubAjse8bYj54ep/WtG4CZ2pQ4IGbc9JWY+q70fXnbhlg899aY9N0lserw42LGFefHxSf1SOevrbH85h/GsG+W3iZSWX/V3305ll10aHp9cyy+cV59b+G1c8+LOV89M0YWpwg+vyTG/MWcWJiGTWZqP/9YTLr+0fo6+0yjTjk4qga+M0a/Kzt2w+3vW2Ppjd+J477bOGN7xHuPi6E906CcQig98cj0+TbEvMuujAm3FeqT4/aFF8TYA+teiNrs+NO+ckPMrFvq5NC4+J8/GTPGHNDw91488ysx6vq6AdQxU5uCJjOeP5VdZX4i1eVk57Je6XJ2T/vqrIu45IKImcUQeEDE9M9GTDw1ondhnF08zp8fcfkPGsPskZdELMyOU39Oa/34q1ZkW3aan/0f2dcpWQpkxtzsvN388qPZZxk9JWLO32RX2IXzdrbvqunZ5/hN/Wv9xkUs/Vbh6rtEpf3stczUBqA1ZmrTqpo1a+oD6cwhIwY1BtoF+3SJIcMHxglpGMtr4sUms63fiBWPp0A7usRp7z8pxh5VCLQL432ia98Bcf77h0TxLsMVj1Q3HKve+nhkSQq046AY/8Hj47TDukenwr/affaJ3kcMiQsaUuItcffKP7Y407lzl87RNW09eveOQUccEmd94L3xpQlDGoLoDY89GgtXb0+j8ra+9Ie4IwXaPY47Js4fVFe2SaeSz1C39ewdJ5x+fJzfMClxfTxX0zwsB8h8aHxMKgbShdD5lh/HqBQqF0LkaVP+b8x8sjj7uFMMfe+ZMTmN6lTYf/GJxUA7onbpPY29mVV33Bajvrc8imfrOPzQmJjKnWzbFHNvW5K2u+KSy+bEuI9dGd0+fkcsXJfekx1/xIRJMb3kt4RLf13sKbetj9Eji4F29vmefCim1QXamfOOjeNSoB3xWsy7qhhoF7wYM7/0g5j9ZBoW/t4nnplqgBZkJ5tePVrZms7PaLSbfQt/XBJoHxux6MaIy86JqCq+P7uAnjglYsFVjQHw4msj5jecS5tpdvwR2QX8+I9G3H5zxJxx6T2ZaTMbQ/Kipbc2fpZC6DzncymQLuiTfa5vZN8nsj8Lqm/PXl9RXxdV2g8AUI5Qm9Z1bAyxe+9XZjHSbl3qZ4vU2Sc6Fy9QCzaujYeXp3rAkBg5YOd/bp36DYwpf/P+uKKwffjIhoC7TvWauLe4pMlxA2P4/qku0WPwiPrewjbywIZQo60Kt7tfOPqgNNoSv328lWVMtq2Pe+9bmWadHxHjj+sX3TrUvVKBztGjzN8LoNTEMYc1zlrb8GzMbjILu+C1mHbbs4XJcPUOPCzGn5fqTKX9XQtLjWyq35b/ocx98LesL1nCqXN0e3cq2+qJu2LM1x9rDFK6Hxnjp7RxGZOLzo4JDettb4iFc29r/Do9Ijanz1370iuxqPnDI7O/96r1xacPZ3/Pzu5QA9qB7GQ8999SnZnx1YiR2fmsnKpzImaenwaZmx9MRVtl1+4T/3fE1BQqx33ZsZstQ7Lwl6nIXPKXjSF6g14Rky5IdWZOs89QaT8AQDlCbVrVu0/vhqD5iedrdp4JvbYmGia9Dd0/ivFwwdaaPzW8dsiR+6fwe3vU1tTE0y+8mm01sWZzlMxebvrPsebVPzYEzKcc0jPqoobt26NmbaG3sK2Pmm37tNjfVr3fNTBOS3WsfCWer1vOpLnt8dLSx+POuqmIXeKU0UNiyK6fe9YGb8SGtPxK4ese0nP3HlgJ7B1GH9qYZtSuejauTnUTNz4byxvOXz2i6sRUZirtv+RjX4lup9Rvx01PO0ud17PxF5zbNsfLxRVGdsevb4i5jzaudT30mPelqjWDY9ZHBjc8HK0wS/uSW9KgYO6sGJg+d7dzZsXMtLtU/56NJ/N163d+SCXAm21ddg6dneo4NWL8LlYjG/vpiAXX12+TB6edu6N7xMWfS3Xm2tJQ+dWIJSUzp0e28FlGHJuKzNLs8zfcvVNpPwBAC4TatK7vgDj7Pel+yOWPx5x7V8fz69+I2i1bYs1zz8ScOxrX277wpKbraW9Y35DWxuH7d4utNatj3tyF8a0fL4rZ/3l/ti2K78+6I757x3Px0k6rbmyP19YV77nsGQfs1zlqV6+MH/04e/9/FHoL273x3evuitn3VkdN66uGtK7jfnFoww8AL8Wa9akstfbZuHVx/TzEHu86Js6qKlmGZU9t3hhP3P9Q3Jpmsx9+yvFN19wGqHNmVB2cyszL1X9IVXMPxKo/pjLT/5DiUhqV9u/KATH9wnc2zrz7w7Nlw+O2uPyZ4nk/c3CfmJrKFrU2S7st3vvJGP+uVGf9SxYsSTXAW2dVyRrXI06OaDjNtaDrIRGjT0jbkWnnbqoqCcOrnywJlbML/bmpjMJn2TfVzXQdEDE+1XFXyRImlfYDALRAqM0udI4hZ5wWX/zAwBiy/5Z4+uFH47of/Sq+9a93xfdvXR5P/KlLHHTU0Jj8sRHxnmYP8dqwqTGc6LapOn4y79F48NWd14yuWfl4XHvrynj+jbSjzhuxsSFc7h6d/rgirrllRaxozMmTwmd6KK5b8FLJre+7q0v0blxDJTZsbvJBMpviwcXL4/m6ul+MPblf4Y723XbnT2+Pr11Tss36dcz5ffbf6LABcf6H3xefPbF3/Wx0gFbUbmq+dEjRa7G5yXMNyqu0v7mx35oSU99dPHu9FvNmztvzMOKZDY1LoHTvFv1TWV6zWdqPPtB0lvauHH5mLPj7YxvCot3uB/ZOP4jocHzL206rHBXtRl9t46pIUVVcFuR/WnachlB5dcTLqWwiuwBu8UbF0iUIW1JpPwBACaE2u7ZpfTy1ak28tFOgXLAl1rzyaqx4YWOLD2ksuHvho/FEzyPiwo++P/7h0nF12xUffXecUFxPunpF3PpYuSnSBdVx610rY2vVkJj8qXNT/7nx1fMHx6A0iXzDk0vj7qebh9G7oeRCesMbTad91zy5POY9V18PGT10p/C+UhteWB33LnkmHnm1gs8P8BYY+63/FTd/6OB0l07hAZTzYsKv6wZ7pjRU79ipIbAuq8ks7ddi/g/vaHuYXgi0bzgvRhcPsG5lXP613egHeLspDZVXRKvX9QAA7YFQm9atfyl+8u/3x/ynNsaG6BKDhr87PvHRs+KKye+Nz44dGkcXQuk/rYnf/tev44bf10TjaqjNHRTj339MvKdv47IdXfsOiPPfP6Rhze6Xlq5Js6HL6D4wLvjA4Bi0X/Gf7D7R44ghcUHJeh0PPrW2YQ3u3fNGbP7vVGYOKn0g5sbq+NV96QbMfkPj7KNbeqT9rp11fnqgZdq++vFRMenUfnXr0NY890z8ZO7v4+7qStZRAXjzNA+0q399R4y7ovh04D3Ur1tjkL1hQ7T81QbHnAtLZ2kviWltDdOLgfaBabzhxZj59R/E1S1+AwIocWrEjC+0vLW4ktye9r1Z1pUs+XFWO/g8AAC7INSmFZviwXuWxiPpwWFHnz0qJp8+IIb07R5du+8Xhw8aGJM+NirO6lv/+vP3PxR3v9BCKDv40BhSnJVdolO/Q+KUAWmw6U9RszHVzfR4d78YVGYZ6x6Djix5yOOmPVyCZHOsbVg4sE/0fkcqY0s8sfjx9PfvHWe/98iGAH5PdGp4oGX91qN37zj6uOPjSx8amJYzqYk773m2fo1ygAYvxLqS39j1P/jUVDV3XPQvWRupdnPx7pdK+3dWLtAedek9Fc90nnh4ya0wGzbH0lTu5DPnxvjDU707s7TLBdpf+15cUsnscmDv8u6IqX/V8tbi+te70devZO2leW/SLSTrXonGc252bd7wEXpFjE5l4Q1llyUpKA3Fh0Tjc3Yq7QcAaIFQm5ZtWh9Pp2U3IgbGKe8sM0u5c+844djiYn9b4sHqxlS69/4lczwO7NbCOtQdo3PJxOhGXaJ3MXTIHL5/CzOkO+7T8tp8bbX2j/Hw2lR3PzAOKobva1bHrU8W1wDfEisW/S5m33J/ybY07m5IoFfH/LT//jVpVxt1GtAvTkh1rK2JtS0E+8DeamUs/2PjfTC9+h3aQmhyaPQveT7Ay88XH3pYaX9T/1OBduEJYpOObvxOse6FZ2NhqpsaHHPOO7Ih8GjzLO1CoP1jgTbQ/hUe2jgi1fGfEQtfT3ULlmfvGfP5+m3SrWnnblp4dyoy40tD5YNLPsur2bFeSXUzTULxY0tC+kr7AQBaINSmZdu3lywnsk90bukBLh0bp1Bv2NG4IGphJnLDzOYXN5afRb1tY6xpCIa7RNeS2dgHHXhEqiKeWLux/NImf9rYuGRJ33324EGLm+KRh59pmB19yIiDomHy3/bs75PKwvueX/1qPN1sW5NmsZe+vrmiFUS2xxt78KA24O1t9uMlKcDhh8XUhhNVo6r//c4Y0XCefiWW/CSVmUr76x0QE68qDbQjqhf/uQLtQlj+3sbAOTv7LvrFPaluZk9maR/9vvpAu7heyZZXYrZAG2ivhkRMyrY6r0ZcfXuqy8muRef8NGLhA/VbVcPFd9vVPhYxoyQMn3RKKgr2jRh1fqozC5elopkmofiIugna9SrtBwBogVCblnXuVDK7enU8vrpcWrspnn6qYe2OGNS9ZNp1335xSjGXXr0ifvVUQwLcYM2yZ+Lu4u6hB8YRJe1dD+8fZxUnaC9ZEffutN70G7Hi8RWFZ9nUOeSoA3dreZCtG1+Nu3+xKH5SnI3d/Yg4e2jJre/7dI5BA/q0svWuWw+7Xvc4PO3vtpv/X1Xz5LPxYKoLz4Tv4X5LoJlVc5+NpcVfeHU8NCZdcWbTWWyHnxmzzjs0DTJProyrStaIrrS/PtCeErPPKw20b4tRn/kzBNpHnxzXzrqySVhe++RDccktadDEHszSLgTaPzi3aaA97Z9iikAbaMcmf7ZxXev50yOm3Fq3QkdTGyJm/2PEVcWL4WMjJjTc/tcG2feFpb+MGP3JiMVp18gvR4xvliiPPiMVmdk/zN7b7JK+9uGI6S2F4plK+wEAyumwI5PqJq787DnRZd/dn/fK28n2eOnB++PaxcU51r3jhDMGxilVfeKALttj/dpX45GHl8Xdq4qh8CEx6cIRcfR+9cOCrS+tiOtuXplmQnePo08ZEif07xKd4o1Y+9SzcfcTr6bZ0L3j7AtPibMOapoI1zz5UHz3zhSad+8TJ5xwZLynT+fsInxLPL9sRdy5Ml0V73Tsmrj7mkVxZ13dJQ46bL/o0aFuUG/Txnj61eLSIgXZ8f8yO36/3UmkS48xJD576eDGWd51tsQjd9wVP1lZPxpy7NAYVJKZx+aNseK5NU0+xyGnjIrPnth7D2ac83b0tXuK07QgYuyMy+L29x+QRhG1Lz0b8x96LWq79IyRIwdHVcNvITfE/CuujHHNQuFK+id/57K49twDGm9H37Y5Vq1aH7Vp2Nzy//qnmHB9fT111vSYcVJaKGrb1qgtPfVmunZvdsZbtzKmfbz8gxurLr40ln2mGGq/FvMuvSomtBZOjzw3Fn3nfTGyJKCpfeWVWFWyxngTG56N6Z+4KeamIey44XupYm9W/cuI/pelweeyfxdTUr0Le9pXNO+KiAkls7T7DYoYd2rE0N4RL6/KXr+1ZB3qzPQbIy4blgaZJscfEDG62eyPVQ807e83LmLRt8ov/TH7byOm3JcG2dcqPNxyRPZ9Iztlx4zvNg3FF01KgxKV9rN32pD9qNfjtLJxBQAItdmVTfHEXQ/EnOXNplQ0171PnD3upLKhcM2TS+O6O19K4XU53eOEc0+O8YPLrZv9Rjz/+9/Hdfe38gjIsscuDZx3Yf9+cf45745TDirzJMpW7V6ovSs9qobGJz4wMA7Z3Y/B25ZQm6aGxqx5n4zJg1v73rw1lt9yQwy7Ynkal9rz/lk/vzom78YCp8tvmZp9jfq6Sai9C7UvLY/pU2fFVU+kHU0MjZt/OSXGp1Cm9tG7YtjHd7H0yEWfi5q/G9z229g3rIxpp/4grk5DEGpT8FaF2gXzvxsx7j/SoCV9ImZck51vm102NDn+LoyelJ3rvxBR1dJygy9FTPl8xOzVaVxG1fkRC75RPhSvuJ+9klAbgNbs5kIJ7H26x9HvOyu++uFj4pQjyoTO3feL95xyfHzx4y3Pcu79rhHxpYkj4rSq/Zo9LLJLHFQ1MC6ceFoLgXZB5zj8xFHZ8YfGCf2av6d7HD50aEz+2O7OsM4ujvr0iUFDB8b488+KK/7q+D0ItP9Msv9+xc/xpb8QaAOtWR5Txv/fuOS2V2JdubX3N7wSc//x/7YQaBdU2v8/o3bT5qheuTJm/+P3ots5LQXaEVUXvy/GNswybONa2gA5N/bvIl6+IWLqGY3LkTQYEDH5cxHLbt450G6LkSdHXPyFiEW/iljw5ew821KgXZCdf2fdGDFnUpnP0Sc7/lURS1oLpCvtBwBoxkxtds/27VHb8CTDjtG1y27+XmTbG1FbfOJjp87RtbWL53LeyPrT0tqdOneOTn4tw9uYmdq07NAYe96RMeq4I6NfzbOx8JFnY+6vX0yvtUWl/bB3MFObdiW7BF9XcvNkr6azRd48r2ef448RS16KqMouVfpnn6Nheaq2qLSfvYaZ2gC0RqgN0E4JtQHeWkJtgLeOUBuA1pjnCgAAAABAbgi1AQAAAADIDaE2AAAAAAC5IdQGAAAAACA3hNoAAAAAAOSGUBsAAAAAgNwQagMAAAAAkBtCbQAAAAAAckOoDQAAAABAbgi1AQAAAADIDaE2AAAAAAC5IdQGAAAAACA3hNoAAAAAAOSGUBsAAAAAgNwQagMAAAAAkBtCbQAAAAAAckOoDQAAAABAbgi1AQAAAADIDaE2AAAAAAC5IdQGAAAAACA3hNoAAAAAAOSGUBsAAAAAgNwQagMAAAAAkBtCbQAAAAAAckOoDQAAAABAbgi1AQAAAADIDaE2AAAAAAC5IdQGAAAAACA3hNoAAAAAAOSGUBsAAAAAgNwQagMAAAAAkBtlQ+3t27fV/bmj7v8CAAAAvDl2CCMA2IUWZ2r37N03+0biOwkAAADw5tm+I2KffQekEQDsrGyovc8+HaN3n4OF2gAAAMCbatu2iA5dq9IIAHbW4kztQ448KrYXfj0KAAAA8CYphNodexyfRgCwsxZD7SMGH10XaputDQAAALwZtm+P2JptHXuelvYAwM5aDrXf+e44YvAxsc1sbQAAAOBN8PrWQqB9RnTc/8y0BwB21mKo3e0dPeJdI0bFtm3bY7vZ2gAAAMD/oG3bI97YGtGpzwejQ6cD0l4A2FmLoXbB0cedEUcde2JdsA0AAADwP2XL6xGdeo+Nzn0vSHsAoLxWQ+2evQ+ME888P/bv0z/e2Lot7QUAAAD489m8JWLHvoOi8yEXR4d9D0t7AaC8VkPtgncefWKc+v4J0e0d+wu2AQAAgD+rQqC9bZ+DYt9D/65upjYA7MouQ+2CE04fF2M++ImGGdvW2AYAAAAqUVjpdFNtxPbOg6LLEdOjc//PpFcAoHVtCrULjjvt3DjnI5+OwUefEG+8sS22Zt99dgi3AQAAgN2wfXtE7ev1gXaH/cdGl6qro3O/T6dXAWDXOuzYzWR6839viIfvvzOe+P2v44VnV8Q++3So2zp0SFt6HwCV+do9Q1IFwFthxw3fSxUAlSikDtuzbdu2+m3r9oiO+50UnfpeGJ0P/mR06HRAeicAtM1uh9pFhXD76SeXxournow1L66KtdUvRO2mjfH6ls3pHQBU4pu/fWeqAHgrrL/u2lQBUIkO++wXHTr1jn26D4l93nFsdOxxcnTsdbYwG4A9tsehNgAAAAAAvNnavKY2AAAAAAC81YTaAAAAAADkhlAbAAAAAIDcEGoDAAAAAJAbQm0AAAAAAHJDqA0AAAAAQG4ItQEAAAAAyA2hNgAAAAAAuSHUBgAAAAAgN4TaAAAAAADkhlAbAAAAAIDcEGoDAAAAAJAbQm0AAAAAAHJDqA0AAAAAQG4ItQEAAAAAyA2hNgAAAAAAuSHUBgAAAAAgN4TaAAAAAADkhlAbAAAAAIDcEGoDAAAAAJAbQm0AAAAAAHJDqA0AAAAAQG4ItQEAAAAAyA2hNgAAAAAAuSHUBgAAAAAgN4TaAAAAAADkhlAbAAAAAIDcEGoDAAAAAJAbQm0AAAAAAHJDqA0AAAAAQG4ItQEAAAAAyA2hNgAAAAAAuSHUBgAAAAAgN4TaAAAAAADkhlAbAAAAAIDcEGoDAAAAAJATEf8/b+lSHFZUy/4AAAAASUVORK5CYII=;" vertex="1" parent="1">
          <mxGeometry x="820" y="60" width="610" height="211.26" as="geometry" />
        </mxCell>
      </root>
    </mxGraphModel>
  </diagram>
</mxfile>
